<svg viewBox="0 0 38 62" fill="none" xmlns="http://www.w3.org/2000/svg">
  <g filter="url(#filter0_d_67_182)">
    <path fill-rule="evenodd" clip-rule="evenodd" d="M18.9925 45.9083C19.2067 45.9418 19.062 45.9819 19.1144 45.6303C19.2099 44.9889 19.6927 41.418 19.8589 41.2722C20.5784 40.6411 20.7243 40.7285 21.2385 40.2775L20.7985 43.3393C20.5825 44.5928 20.1753 47.67 19.168 48.5536L17.8952 49.6701C17.5836 49.3149 17.3649 48.9075 17.115 48.5298C16.0688 46.95 14.6237 44.3265 13.9193 42.6469C13.7343 42.2059 13.622 41.901 13.4502 41.4704C13.2813 41.0467 13.2029 40.6821 12.9954 40.2947C13.4134 39.928 13.6679 39.6712 14.0791 39.4518C14.3042 39.6691 14.3118 39.5947 14.5667 39.8853C14.3488 40.1234 14.4003 40.1237 14.5914 40.4595C14.73 40.7032 14.8099 40.8254 14.9285 41.0547L16.2552 43.4913C16.4716 43.8647 16.7474 44.4359 17.0056 44.744C17.0038 44.4389 16.5025 41.6395 16.429 40.6978L16.0242 33.686C16.0196 33.4854 16.0509 33.3729 16.0464 33.1723C16.041 32.9408 16.0134 32.9044 16.0248 32.6556L16.2359 26.6587C16.3054 25.5634 16.2762 25.2986 16.4434 24.2109L16.7213 21.7106C16.8626 20.3007 17.3781 18.0708 17.7993 16.7453C18.1044 15.7844 18.9855 13.3994 19.7832 12.6997C20.0878 12.4325 20.1026 12.5164 20.3821 12.2821L19.9355 13.2826C19.7832 13.6412 19.6579 13.93 19.5459 14.2866C18.9663 16.1317 18.9129 16.462 18.5504 18.4561C18.4185 19.1816 18.3829 19.8317 18.2457 20.5538L17.9507 23.1102C17.9265 23.3461 17.8897 23.3916 17.8607 23.6194C17.7024 24.8605 17.4837 29.728 17.5122 30.9811C17.5292 31.7222 17.5385 32.3572 17.5804 33.1039C17.8159 37.2914 18.2378 41.1888 18.9374 45.332C18.9518 45.4174 18.9689 45.5352 18.9773 45.621L18.9925 45.9083Z" fill="#ED60A9" fill-opacity="0.33"/>
  </g>
  <defs>
    <filter id="filter0_d_67_182" x="1.20229" y="0.489032" width="31.8293" height="60.9742" filterUnits="userSpaceOnUse" color-interpolation-filters="sRGB">
    <feFlood flood-opacity="0" result="BackgroundImageFix"/>
    <feColorMatrix in="SourceAlpha" type="matrix" values="0 0 0 0 0 0 0 0 0 0 0 0 0 0 0 0 0 0 127 0" result="hardAlpha"/>
    <feOffset/>
    <feGaussianBlur stdDeviation="5.89654"/>
    <feComposite in2="hardAlpha" operator="out"/>
    <feColorMatrix type="matrix" values="0 0 0 0 0.713726 0 0 0 0 0.552941 0 0 0 0 0.713726 0 0 0 0.3 0"/>
    <feBlend mode="normal" in2="BackgroundImageFix" result="effect1_dropShadow_67_182"/>
    <feBlend mode="normal" in="SourceGraphic" in2="effect1_dropShadow_67_182" result="shape"/>
    </filter>
  </defs>
</svg>
