<svg viewBox="0 0 28 28" fill="none" xmlns="http://www.w3.org/2000/svg"><mask id="a" maskUnits="userSpaceOnUse" x="0" y="0" width="28" height="28" fill="#000"><path fill="#fff" d="M0 0h28v28H0z"/><path d="M14.215 27.43a13.13 13.13 0 0 0 9.344-3.87 13.127 13.127 0 0 0 3.871-9.345 13.13 13.13 0 0 0-3.87-9.344A13.127 13.127 0 0 0 14.214 1 13.13 13.13 0 0 0 4.87 4.87 13.127 13.127 0 0 0 1 14.216a13.13 13.13 0 0 0 3.87 9.344 13.127 13.127 0 0 0 9.345 3.871ZM6.039 6.039a11.486 11.486 0 0 1 8.176-3.387c3.089 0 5.992 1.203 8.176 3.387a11.486 11.486 0 0 1 3.387 8.176c0 3.089-1.203 5.992-3.387 8.176a11.486 11.486 0 0 1-8.176 3.387 11.486 11.486 0 0 1-8.176-3.387 11.486 11.486 0 0 1-3.387-8.176c0-3.089 1.203-5.992 3.387-8.176Z"/></mask><path d="M14.215 27.43a13.13 13.13 0 0 0 9.344-3.87 13.127 13.127 0 0 0 3.871-9.345 13.13 13.13 0 0 0-3.87-9.344A13.127 13.127 0 0 0 14.214 1 13.13 13.13 0 0 0 4.87 4.87 13.127 13.127 0 0 0 1 14.216a13.13 13.13 0 0 0 3.87 9.344 13.127 13.127 0 0 0 9.345 3.871ZM6.039 6.039a11.486 11.486 0 0 1 8.176-3.387c3.089 0 5.992 1.203 8.176 3.387a11.486 11.486 0 0 1 3.387 8.176c0 3.089-1.203 5.992-3.387 8.176a11.486 11.486 0 0 1-8.176 3.387 11.486 11.486 0 0 1-8.176-3.387 11.486 11.486 0 0 1-3.387-8.176c0-3.089 1.203-5.992 3.387-8.176Z" fill="#fff"/><path d="M14.215 27.43a13.13 13.13 0 0 0 9.344-3.87 13.127 13.127 0 0 0 3.871-9.345 13.13 13.13 0 0 0-3.87-9.344A13.127 13.127 0 0 0 14.214 1 13.13 13.13 0 0 0 4.87 4.87 13.127 13.127 0 0 0 1 14.216a13.13 13.13 0 0 0 3.87 9.344 13.127 13.127 0 0 0 9.345 3.871ZM6.039 6.039a11.486 11.486 0 0 1 8.176-3.387c3.089 0 5.992 1.203 8.176 3.387a11.486 11.486 0 0 1 3.387 8.176c0 3.089-1.203 5.992-3.387 8.176a11.486 11.486 0 0 1-8.176 3.387 11.486 11.486 0 0 1-8.176-3.387 11.486 11.486 0 0 1-3.387-8.176c0-3.089 1.203-5.992 3.387-8.176Z" stroke="#fff" stroke-width=".4" mask="url(#a)"/><mask id="b" maskUnits="userSpaceOnUse" x="4.543" y="7.433" width="18" height="14" fill="#000"><path fill="#fff" d="M4.543 7.433h18v14h-18z"/><path d="M10.885 20.823h.026c.225 0 .44-.092.596-.254L21.83 9.832a.826.826 0 1 0-1.191-1.145l-9.69 10.077L7 14.094a.826.826 0 1 0-1.262 1.068l4.543 5.368a.8.8 0 0 0 .604.293Z"/></mask><path d="M10.885 20.823h.026c.225 0 .44-.092.596-.254L21.83 9.832a.826.826 0 1 0-1.191-1.145l-9.69 10.077L7 14.094a.826.826 0 1 0-1.262 1.068l4.543 5.368a.8.8 0 0 0 .604.293Z" fill="#fff"/><path d="M10.885 20.823h.026c.225 0 .44-.092.596-.254L21.83 9.832a.826.826 0 1 0-1.191-1.145l-9.69 10.077L7 14.094a.826.826 0 1 0-1.262 1.068l4.543 5.368a.8.8 0 0 0 .604.293Z" stroke="#fff" stroke-width=".4" mask="url(#b)"/></svg>