<svg width="152" height="58" fill="none" xmlns="http://www.w3.org/2000/svg"><path d="M8.301 28.074a16.37 16.37 0 0 1-4.167-.53c-1.347-.354-2.442-.826-3.284-1.415l1.642-3.688c.791.522 1.71.943 2.753 1.263 1.044.32 2.071.48 3.081.48 1.92 0 2.88-.48 2.88-1.44 0-.505-.278-.875-.834-1.111-.539-.252-1.414-.514-2.626-.783-1.33-.286-2.442-.59-3.334-.91a5.723 5.723 0 0 1-2.299-1.59c-.64-.724-.96-1.701-.96-2.93 0-1.078.295-2.046.884-2.905.59-.875 1.465-1.566 2.627-2.07 1.179-.506 2.619-.759 4.32-.759 1.161 0 2.306.135 3.434.405 1.128.252 2.122.63 2.98 1.136l-1.54 3.713c-1.684-.91-3.317-1.364-4.9-1.364-.994 0-1.718.151-2.172.455-.455.286-.682.665-.682 1.136 0 .472.27.825.808 1.061.539.236 1.406.48 2.602.732 1.347.287 2.458.598 3.334.935.892.32 1.658.842 2.298 1.566.657.707.985 1.675.985 2.905 0 1.06-.295 2.02-.884 2.879-.59.858-1.473 1.549-2.652 2.07-1.179.506-2.61.759-4.294.759Zm13.657-14.069h-5.43V10.04h15.836v3.965h-5.405V27.72h-5.001V14.005Zm23.226 10.28h-7.476L36.32 27.72h-5.102l7.805-17.68h4.925l7.83 17.68h-5.203l-1.39-3.435Zm-1.465-3.688-2.273-5.657-2.273 5.658h4.546Zm17.204 2.425h-2.728v4.698h-5V10.04h8.081c1.6 0 2.99.27 4.168.808 1.179.522 2.088 1.28 2.728 2.273.64.977.96 2.13.96 3.46 0 1.28-.304 2.4-.91 3.36-.59.943-1.44 1.684-2.55 2.222l3.813 5.557H64.13l-3.207-4.698Zm3.157-6.44c0-.825-.261-1.465-.783-1.92-.522-.455-1.296-.682-2.324-.682h-2.778v5.178h2.778c1.028 0 1.802-.22 2.324-.657.522-.454.783-1.094.783-1.92ZM2.088 36.04h5v13.715h8.437v3.965H2.088V36.04Zm15.416 0h5v17.68h-5V36.04Zm15.378 11.265-1.87 1.995v4.42h-4.95V36.04h4.95v7.35l6.846-7.35h5.506l-7.224 7.83 7.602 9.85h-5.809l-5.051-6.415Zm26.367 2.55v3.865H45.055V36.04H58.92v3.864h-8.916v2.98h7.855v3.739h-7.855v3.233h9.244Zm8.989 4.219c-1.432 0-2.82-.177-4.168-.53-1.347-.354-2.441-.826-3.283-1.415l1.641-3.688c.792.522 1.71.943 2.754 1.263 1.043.32 2.07.48 3.08.48 1.92 0 2.88-.48 2.88-1.44 0-.505-.278-.875-.833-1.111-.54-.253-1.415-.514-2.627-.783-1.33-.286-2.442-.59-3.334-.91a5.723 5.723 0 0 1-2.298-1.59c-.64-.724-.96-1.701-.96-2.93 0-1.078.294-2.046.884-2.905.59-.875 1.465-1.566 2.627-2.07 1.178-.506 2.618-.759 4.319-.759 1.161 0 2.306.135 3.434.404 1.129.253 2.122.632 2.98 1.137l-1.54 3.713c-1.684-.91-3.317-1.364-4.9-1.364-.993 0-1.717.151-2.172.455-.454.286-.682.665-.682 1.136 0 .472.27.825.808 1.061.54.236 1.406.48 2.602.733 1.347.286 2.458.597 3.334.934.892.32 1.658.842 2.298 1.566.657.707.985 1.675.985 2.904a4.97 4.97 0 0 1-.884 2.88c-.589.858-1.473 1.549-2.652 2.07-1.178.506-2.61.759-4.293.759Z" fill="#fff"/><path fill-rule="evenodd" clip-rule="evenodd" d="m122.149.52 9.126 18.581 19.845 3.268-14.205 14.75 3.139 20.601-17.905-9.465-17.906 9.465 2.649-17.386c2.386.247 4.554.462 6.939.462.777 0 1.407-.626 1.407-1.4V31.6c0-.773-.237-1.144-1.064-1.355-5.836-.89-8.904-1.376-15.626-2.3l-5.371-5.576 19.845-3.268L122.149.52Zm7.537 32.707c0-.511-.255-.99-.68-1.277a3.07 3.07 0 0 0 .615-1.465c0-1.438-1.355-1.867-3.442-1.867a17.5 17.5 0 0 0-3.684.434c.113-.616.938-2.403.938-3 0-1.242-.296-2.8-1.44-3.393a2.045 2.045 0 0 0-1.017-.27h-.033a1.757 1.757 0 0 0-1.247.438 1.078 1.078 0 0 0-.127.626l.207 2.333c0 1.865-2.883 4.2-2.883 6.882v5.627c0 .999 1.345 1.709 3.281 1.709h5.368c1.407 0 1.72-.243 2.081-.896a1.285 1.285 0 0 0-.028-1.363 2.1 2.1 0 0 0 1.322-1.517c.084-.41.02-.835-.178-1.203a1.61 1.61 0 0 0 .938-1.592l.009-.206Z" fill="#fff"/></svg>