<svg viewBox="0 0 38 62" fill="none" xmlns="http://www.w3.org/2000/svg"><g filter="url(#a)"><path fill-rule="evenodd" clip-rule="evenodd" d="M18.992 45.908c.215.034.07.074.122-.278.096-.641.579-4.212.745-4.358.72-.63.865-.544 1.38-.994l-.44 3.061c-.216 1.254-.624 4.331-1.631 5.215l-1.273 1.116c-.311-.355-.53-.763-.78-1.14-1.046-1.58-2.491-4.203-3.196-5.883-.185-.441-.297-.746-.469-1.177-.169-.423-.247-.788-.455-1.175.418-.367.673-.624 1.084-.843.225.217.233.143.488.433-.218.238-.167.239.024.575.139.243.219.365.338.595l1.326 2.436c.217.374.492.945.75 1.253-.001-.305-.502-3.105-.576-4.046l-.405-7.012c-.004-.2.027-.313.022-.514-.005-.231-.033-.268-.021-.516l.21-5.997c.07-1.096.041-1.36.208-2.448l.278-2.5c.142-1.41.657-3.64 1.078-4.966.305-.96 1.186-3.346 1.984-4.045.305-.268.32-.184.6-.418l-.447 1c-.153.36-.278.648-.39 1.005-.58 1.845-.633 2.175-.996 4.17-.131.725-.167 1.375-.304 2.097l-.295 2.556c-.024.236-.061.282-.09.51-.159 1.24-.377 6.108-.349 7.361.017.741.026 1.376.068 2.123.236 4.187.658 8.085 1.357 12.228.015.085.032.203.04.289l.015.287Z" fill="#ED60A9" fill-opacity=".33"/></g><defs><filter id="a" x="1.202" y=".489" width="31.829" height="60.974" filterUnits="userSpaceOnUse" color-interpolation-filters="sRGB"><feFlood flood-opacity="0" result="BackgroundImageFix"/><feColorMatrix in="SourceAlpha" values="0 0 0 0 0 0 0 0 0 0 0 0 0 0 0 0 0 0 127 0" result="hardAlpha"/><feOffset/><feGaussianBlur stdDeviation="5.897"/><feComposite in2="hardAlpha" operator="out"/><feColorMatrix values="0 0 0 0 0.713726 0 0 0 0 0.552941 0 0 0 0 0.713726 0 0 0 0.3 0"/><feBlend in2="BackgroundImageFix" result="effect1_dropShadow_67_182"/><feBlend in="SourceGraphic" in2="effect1_dropShadow_67_182" result="shape"/></filter></defs></svg>