<svg xmlns="http://www.w3.org/2000/svg" viewBox="0 0 512 512">
  <rect width="512" height="512" fill="#79418b" rx="106" ry="106"/>
  <path fill="#fff" fill-rule="evenodd" d="m256.13 44 67.81 138.06 147.45 24.28-105.54 109.6 23.33 153.07-133.04-70.33-133.04 70.33 19.69-129.18c17.73 1.83 33.83 3.43 51.55 3.43 5.77 0 10.45-4.65 10.45-10.4v-57.93c0-5.74-1.76-8.5-7.91-10.06-43.36-6.61-66.15-10.22-116.1-17.09l-39.91-41.44 147.45-24.28L256.13 44Zm56 243.02c0-3.8-1.9-7.36-5.05-9.49a22.84 22.84 0 0 0 4.57-10.89c0-10.68-10.07-13.87-25.57-13.87-9.21.1-18.4 1.18-27.38 3.23.84-4.58 6.97-17.85 6.97-22.29 0-9.22-2.2-20.8-10.69-25.21a15.27 15.27 0 0 0-7.56-2.01h-.25a13.09 13.09 0 0 0-9.27 3.26 7.992 7.992 0 0 0-.94 4.65l1.54 17.33c0 13.86-21.42 31.2-21.42 51.14v41.81c0 7.42 10 12.69 24.38 12.69h39.88c10.45 0 12.79-1.8 15.47-6.66a9.576 9.576 0 0 0 1.35-4.89c0-1.86-.55-3.68-1.56-5.23 4.98-1.85 8.68-6.1 9.82-11.27.62-3.04.15-6.2-1.32-8.94 4.26-1.95 7-6.2 7-10.87 0-.32-.01-.63-.04-.95l.07-1.53Z"/>
</svg>